<svg xmlns="http://www.w3.org/2000/svg" width="16" height="16" viewBox="0 0 16 16"><g transform="translate(0 -0.266)"><circle cx="8" cy="8" r="8" transform="translate(0 0.266)" fill="#e76f51"/><path d="M9.01-15.573a1.985,1.985,0,0,1-.144.587,1.534,1.534,0,0,1-.336.5,1.729,1.729,0,0,1-.541.359,2.417,2.417,0,0,1-.76.177,3.386,3.386,0,0,1-.834-.028q-.405-.065-.806-.149t-.8-.154a3.262,3.262,0,0,0-.8-.042,2.734,2.734,0,0,0-.662.14,1.811,1.811,0,0,0-.578.322,1.551,1.551,0,0,0-.405.531,1.745,1.745,0,0,0-.154.76,1.443,1.443,0,0,0,.112.583,1.961,1.961,0,0,0,.256.438,1.428,1.428,0,0,0,.275.275q.13.093.168.084a3.007,3.007,0,0,1-1.3.093,2.064,2.064,0,0,1-.969-.424,1.913,1.913,0,0,1-.578-.806,2.247,2.247,0,0,1-.13-1.044,2.593,2.593,0,0,1,.3-1.007,2.488,2.488,0,0,1,.643-.76,3.032,3.032,0,0,1,.927-.489,4.018,4.018,0,0,1,1.156-.2,4.8,4.8,0,0,1,1.123.093q.545.112,1.067.261t1.011.284a5.124,5.124,0,0,0,.96.172,2.755,2.755,0,0,0,.918-.079A2.235,2.235,0,0,0,9.01-15.573ZM3.771-12.748q.019-.056.07-.224a1.836,1.836,0,0,0,.07-.359,1.151,1.151,0,0,0-.023-.373.383.383,0,0,0-.2-.266q.186.009.224.009h.242a2.128,2.128,0,0,1,1.011.252,1.428,1.428,0,0,1,.536.536,1.369,1.369,0,0,1,.168.657,1.882,1.882,0,0,1-.093.615L4.741-8.843q-.019.056-.07.224a1.836,1.836,0,0,0-.07.359,1.151,1.151,0,0,0,.023.373.383.383,0,0,0,.2.266q-.186-.009-.224-.009H4.358a2.128,2.128,0,0,1-1.011-.252,1.428,1.428,0,0,1-.536-.536,1.369,1.369,0,0,1-.168-.657,1.882,1.882,0,0,1,.093-.615Z" transform="translate(3.489 19.99)" fill="#fff"/></g></svg>